<?xml version="1.0" encoding="UTF-8"?><svg id="Layer_2" xmlns="http://www.w3.org/2000/svg" viewBox="0 0 612 792"><defs><style>.cls-1{fill:#f0eaf4;}.cls-2{fill:#2e2055;}.cls-3{fill:none;stroke:#f0eaf4;stroke-miterlimit:10;}</style></defs><g id="Layer_1-2"><g><rect class="cls-2" width="612" height="792"/><g><g><path class="cls-1" d="M215.19,201.81c0-5.92,2.88-11.25,7.36-13.87-1.12-1.97-1.76-4.43-1.76-7.2,0-7.52,7.31-13.92,16.11-13.92,8.21,0,14.03,6.35,14.03,15.41,0,13.12-13.17,22.19-27.04,18.29v-.53c12.27,1.44,23.47-4.48,23.47-14.99,0-6.35-4.8-10.83-11.57-10.83-6.29,0-11.68,3.25-11.68,9.33,0,1.28,.21,2.45,.59,3.47,1.23-.43,2.56-.64,3.95-.64,3.25,0,5.65,1.39,5.65,3.36,0,1.71-1.76,3.04-4.16,3.04-2.67,0-4.96-1.28-6.67-3.41-2.93,1.81-4.8,5.44-4.8,9.49,0,6.4,4.43,10.19,12.37,10.19,9.97-.11,16.53-5.39,22.4-11.73l.37,.32c-4.43,6.93-6.03,13.55-3.79,18.45l-.37,.32c-1.6-1.71-3.41-2.19-5.33-2.24-3.41-.05-8.43,2.35-12.91,2.35-9.28,0-16.21-5.87-16.21-14.67Zm10.19-13.39c1.12,1.65,2.77,2.67,4.69,2.67,1.07,0,2.03-.43,2.03-1.33,0-1.12-1.55-1.76-3.52-1.76-1.12-.05-2.19,.11-3.2,.43Z"/><path class="cls-1" d="M257.8,199.52c0-1.87,.96-5.12,2.08-7.47-4.16,1.01-7.09-2.93-5.23-7.31h.53c.37,2.67,5.76,2.83,8.91-.11l.69,.43c-2.35,3.73-4.48,8.53-4.48,11.15-.05,2.56,1.81,3.95,5.23,3.95,4.48,0,8.21-3.63,8.21-6.99,0-1.97-1.23-3.25-2.88-3.25s-2.77,1.23-2.67,2.99l-.43,.21c-.96-.64-1.6-2.08-1.6-3.73,0-2.72,1.76-4.75,4.21-4.75,3.04,0,5.01,2.99,5.01,7.36,0,7.47-5.44,13.49-11.36,13.49-4,0-6.24-2.51-6.24-5.97Z"/><path class="cls-1" d="M276.62,204.26c4.21-1.76,7.04-5.87,8.43-12.64-4.75,2.51-8.96-1.81-6.93-6.88h.53c.43,2.93,6.51,3.09,9.6-.11l.64,.16c-4.11,10.29-4.21,18.29-.27,19.47v.53h-12v-.53Zm10.24-26.35c.11-1.87,1.33-3.41,2.72-3.41s2.35,1.55,2.24,3.41c-.11,1.92-1.33,3.47-2.67,3.47s-2.4-1.55-2.29-3.47Z"/><path class="cls-1" d="M294.76,194.61l5.44-16.59c-4.75,2.13-7.79-2.13-5.49-6.67h.53c.69,2.83,4.59,2.77,8.32-.11l.64,.16-7.73,23.73c-1.01,3.09-.16,5.01,2.35,5.01,1.55,0,3.15-1.01,4.37-2.93l.69,.32c-1.87,5.23-4.16,7.95-6.88,7.95-3.79,0-4.53-3.84-2.24-10.88Z"/><path class="cls-1" d="M315.4,201.81c0-5.92,2.88-11.25,7.36-13.87-1.12-1.97-1.76-4.43-1.76-7.2,0-7.52,7.31-13.92,16.11-13.92,8.21,0,14.03,6.35,14.03,15.41,0,13.12-13.17,22.19-27.04,18.29v-.53c12.27,1.44,23.47-4.48,23.47-14.99,0-6.35-4.8-10.83-11.57-10.83-6.29,0-11.68,3.25-11.68,9.33,0,1.28,.21,2.45,.59,3.47,1.23-.43,2.56-.64,3.95-.64,3.25,0,5.65,1.39,5.65,3.36,0,1.71-1.76,3.04-4.16,3.04-2.67,0-4.96-1.28-6.67-3.41-2.93,1.81-4.8,5.44-4.8,9.49,0,6.4,4.43,10.19,12.37,10.19,9.97-.11,16.53-5.39,22.4-11.73l.37,.32c-4.43,6.93-6.03,13.55-3.79,18.45l-.37,.32c-1.6-1.71-3.41-2.19-5.33-2.24-3.41-.05-8.43,2.35-12.91,2.35-9.28,0-16.21-5.87-16.21-14.67Zm10.19-13.39c1.12,1.65,2.77,2.67,4.69,2.67,1.07,0,2.03-.43,2.03-1.33,0-1.12-1.55-1.76-3.52-1.76-1.12-.05-2.19,.11-3.2,.43Z"/><path class="cls-1" d="M356.89,215.09c-1.23,0-2.08,.64-2.67,2.03h-.53c-1.49-4.96,2.08-7.36,4.96-7.36,3.73,0,6.19,3.79,8.8,3.79,1.49,0,2.83-1.12,2.83-3.63,0-2.24-.64-5.87,.05-9.49-2.19,3.04-4.85,5.07-7.41,5.07-2.4,0-4.69-1.76-4.69-5.01,0-1.65,.64-3.95,2.51-8.59-4.16,1.39-7.31-2.61-5.33-7.15h.53c.37,2.67,5.23,2.67,8.27-.16l.69,.43c-3.04,8-4.11,10.4-4.11,12.37s1.12,2.77,3.36,2.77c5.33,0,8.43-5.07,8.43-9.17,0-2.4-1.12-4.64-3.68-5.12v-.53h10.4v.53c-2.67,1.23-5.28,6.29-6.61,11.63-1.33,5.76-.48,9.17-.48,12.43,0,4.75-3.15,7.89-7.09,7.89s-5.44-2.72-8.21-2.72Z"/><path class="cls-1" d="M379.45,197.44c0-7.25,4.64-12.8,9.81-12.8,3.25,0,5.71,2.19,5.71,5.71,0,4.43-4.21,6.93-8.32,6.88-2.03,0-4.32-.59-5.49-1.39v.64c0,2.61,2.77,3.68,5.49,3.68,3.04,.11,6.45-1.55,7.84-3.84l.64,.21c-1.55,5.65-4.96,8.96-9.28,8.96s-6.45-3.15-6.4-8.05Zm2.03-3.36c1.23,.69,3.15,1.23,4.75,1.23,3.41,0,5.97-1.28,5.97-2.93,0-1.44-1.71-2.56-4.59-2.56-3.15-.11-5.39,1.44-6.13,4.27Z"/></g><g><path class="cls-1" d="M240.42,445.9c0-15.25,10.72-29.07,23.52-29.07,6.93,0,11.79,4.96,11.79,12s-5.23,11.73-12.37,11.73c-5.55,0-10.03-2.88-10.03-6.88,0-2.72,2.13-4.43,4.37-4.43,1.87,0,3.84,1.17,4.69,3.89l-.37,.32c-.32-.37-1.01-.48-1.49-.48-1.01,0-1.81,.91-1.81,2.03,0,1.97,2.45,3.41,5.65,3.41,4.69,0,8.11-3.09,8.11-7.15,0-4.59-4.32-7.04-10.19-7.04-12.43,0-19.52,8.96-19.52,19.79,0,9.97,6.29,14.67,14.61,14.67,5.65,0,10.19-2.61,10.19-6.4,0-1.87-1.17-3.73-2.77-4.32l.05-.64c4-.16,6.99,3.04,6.99,7.57,0,6.77-6.51,11.79-14.24,11.79-10.13,0-17.17-7.73-17.17-20.8Z"/><path class="cls-1" d="M277.44,446.65c0-6.72,4.16-12,9.39-12,4.27,0,6.99,3.52,6.93,8.85,.05,6.72-4.11,12-9.39,12-4.21,0-6.93-3.52-6.93-8.85Zm14.67-1.87c0-2.88-2.35-4.8-6.13-4.8-4.11,0-6.88,2.13-6.88,5.28s2.4,4.91,6.24,4.91c4.05,0,6.77-2.13,6.77-5.39Z"/><path class="cls-1" d="M306.08,435.34h.43l.8-2.72c1.39-4.64,1.17-7.31-1.97-7.63l.05-.53c8.91-7.04,15.68,2.51,10.61,6.24l-.43-.37c1.39-2.35-.21-3.95-2.08-3.95-2.67,0-3.41,3.41-4.37,6.72l-.64,2.24h7.36v.53c-1.92,1.49-3.04,4.64-3.04,7.31h-.53c-.69-1.76-2.56-3.25-4.96-3.95l-5.01,16.91c-.85,2.88-1.17,4.16-1.17,5.39,0,2.4,1.07,4.59,3.63,5.07v.53h-12v-.53c4.21-1.76,6.35-6.24,7.68-10.77l5.01-16.96c-.43,0-.91-.05-1.39-.05-3.89,0-5.65,1.49-4.96,4.59l-.53,.27c-2.61-3.95,.16-8.32,7.52-8.32Z"/><path class="cls-1" d="M325.01,435.34h.43l.8-2.72c1.39-4.64,1.17-7.31-1.97-7.63l.05-.53c8.91-7.04,15.68,2.51,10.61,6.24l-.43-.37c1.39-2.35-.21-3.95-2.08-3.95-2.67,0-3.41,3.41-4.37,6.72l-.64,2.24h7.36v.53c-1.92,1.49-3.04,4.64-3.04,7.31h-.53c-.69-1.76-2.56-3.25-4.96-3.95l-5.01,16.91c-.85,2.88-1.17,4.16-1.17,5.39,0,2.4,1.07,4.59,3.63,5.07v.53h-12v-.53c4.21-1.76,6.35-6.24,7.68-10.77l5.01-16.96c-.43,0-.91-.05-1.39-.05-3.89,0-5.65,1.49-4.96,4.59l-.53,.27c-2.61-3.95,.16-8.32,7.52-8.32Z"/><path class="cls-1" d="M335.99,447.45c0-7.25,4.64-12.8,9.81-12.8,3.25,0,5.71,2.19,5.71,5.71,0,4.43-4.21,6.93-8.32,6.88-2.03,0-4.32-.59-5.49-1.39v.64c0,2.61,2.77,3.68,5.49,3.68,3.04,.11,6.45-1.55,7.84-3.84l.64,.21c-1.55,5.65-4.96,8.96-9.28,8.96s-6.45-3.15-6.4-8.05Zm2.03-3.36c1.23,.69,3.15,1.23,4.75,1.23,3.41,0,5.97-1.28,5.97-2.93,0-1.44-1.71-2.56-4.59-2.56-3.15-.11-5.39,1.44-6.13,4.27Z"/><path class="cls-1" d="M356.21,447.45c0-7.25,4.64-12.8,9.81-12.8,3.25,0,5.71,2.19,5.71,5.71,0,4.43-4.21,6.93-8.32,6.88-2.03,0-4.32-.59-5.49-1.39v.64c0,2.61,2.77,3.68,5.49,3.68,3.04,.11,6.45-1.55,7.84-3.84l.64,.21c-1.55,5.65-4.96,8.96-9.28,8.96s-6.45-3.15-6.4-8.05Zm2.03-3.36c1.23,.69,3.15,1.23,4.75,1.23,3.41,0,5.97-1.28,5.97-2.93,0-1.44-1.71-2.56-4.59-2.56-3.15-.11-5.39,1.44-6.13,4.27Z"/></g><g><path class="cls-1" d="M332.4,339.42c2.28,1.27,2.25,1.26,3.56-.89,7.63-12.54,15.27-25.07,22.91-37.6,1.92-3.16,3.85-6.32,5.77-9.48,.06-.1,.11-.19,.17-.29,.35-.62,.84-1.06,1.54-.64,.7,.41,.57,1.02,.19,1.65-1.32,2.17-2.61,4.36-3.93,6.53-5.98,9.83-11.96,19.65-17.94,29.48-2.54,4.18-5.08,8.36-7.66,12.52-.44,.7-.34,1.02,.36,1.36,.74,.36,1.49,.74,2.13,1.24,.94,.74,1.47,.47,2.16-.41,6.72-8.63,13.12-17.5,19.69-26.25,9.95-13.26,19.83-26.57,29.73-39.87,.48-.65,.99-1.42,1.88-.74,.83,.64,.23,1.35-.21,1.95-5.33,7.15-10.68,14.3-16.01,21.45-10.43,13.97-20.86,27.94-31.28,41.93-.76,1.02-1.42,2.11-2.37,2.96-.57,.52-.61,1,.12,1.41,.03,.02,.06,.04,.09,.06,1.96,1.41,1.97,1.42,3.65-.33,6.28-6.51,12.55-13.03,18.82-19.54,5.73-5.95,11.45-11.91,17.17-17.87,.51-.53,1.08-.96,1.72-.35,.64,.6,.27,1.22-.24,1.75-1.65,1.73-3.3,3.46-4.97,5.18-5.22,5.4-10.45,10.8-15.66,16.21-5.37,5.57-10.7,11.17-16.09,16.72-.75,.77-.59,1.17,.15,1.75,2.03,1.57,2.01,1.6,4.03,.03,10.54-8.16,21.07-16.32,31.6-24.49,7.73-6,15.45-12,23.17-18.01,.06-.05,.11-.1,.17-.15,.59-.41,1.24-.71,1.77,0,.53,.71,.08,1.26-.5,1.7-2.19,1.69-4.39,3.36-6.57,5.05-10.68,8.28-21.35,16.57-32.03,24.86-5.81,4.51-11.62,9.02-17.44,13.52-.51,.39-.69,.62-.14,1.18,2.1,2.16,2.07,2.16,4.66,.6,12.93-7.78,25.86-15.55,38.79-23.33,.65-.39,1.36-.73,1.86,.1,.5,.83-.17,1.29-.8,1.67-6.4,3.85-12.79,7.71-19.19,11.56-6.88,4.14-13.77,8.26-20.65,12.4-1.16,.7-1.16,.75-.25,1.8,1.63,1.86,1.61,1.83,3.86,.79,14.53-6.75,29.07-13.49,43.6-20.24,3.52-1.64,7.04-3.28,10.56-4.92,.17-.08,.35-.14,.52-.21,.59-.25,1.16-.19,1.45,.4,.33,.66-.05,1.15-.66,1.44-1.79,.85-3.58,1.7-5.37,2.53-5.86,2.72-11.73,5.43-17.59,8.15-10.88,5.04-21.75,10.09-32.64,15.11-.77,.35-.96,.66-.39,1.37,.52,.63,.96,1.34,1.37,2.05,.38,.65,.82,.7,1.5,.45,12.56-4.66,25.14-9.29,37.7-13.95,.74-.28,1.48-.39,1.78,.48,.3,.84-.31,1.24-1.07,1.52-12.4,4.55-24.8,9.12-37.2,13.67-.8,.29-1.16,.62-.56,1.42,.24,.33,.42,.7,.62,1.07,.98,1.82,.49,1.83,2.77,1.26,17.7-4.42,35.4-8.84,53.1-13.27,.54-.14,1.09-.24,1.63-.4,.74-.22,1.41-.15,1.61,.67,.2,.81-.36,1.19-1.11,1.38-3.95,.96-7.89,1.93-11.84,2.91-14.76,3.68-29.52,7.36-44.28,11.04-.99,.25-1.82,.71-2.56,1.48-6.87,7.13-14.83,12.75-23.84,16.82-7.42,3.36-15.2,5.49-23.29,6.58-5.47,.74-10.96,.9-16.43,.57-10.62-.64-20.85-3.12-30.65-7.29-7.92-3.37-15.25-7.7-22.07-12.94-.79-.61-1.72-.92-1.9-2.1-.06-.37-.72-.31-1.1-.39-5.7-1.18-11.4-2.33-17.09-3.51-6.21-1.28-12.41-2.58-18.62-3.87-6.02-1.25-12.05-2.49-18.07-3.73-.29-.06-.59-.12-.87-.2-.65-.19-1.11-.59-.93-1.29,.19-.72,.73-.92,1.49-.75,5.03,1.08,10.07,2.15,15.1,3.19,10.55,2.19,21.11,4.36,31.67,6.53,2.96,.61,5.92,1.18,8.87,1.84,.59,.13,.76-.01,.95-.52,.99-2.68,1-2.65-1.7-3.63-10.07-3.65-20.14-7.31-30.21-10.96-.74-.27-1.21-.76-.91-1.52,.27-.7,.92-.75,1.61-.5,10.58,3.88,21.18,7.73,31.75,11.63,.88,.33,1.39,.29,1.63-.7,.09-.35,.32-.67,.48-1.01,.87-1.78,.89-1.81-.95-2.7-11.67-5.64-23.35-11.27-35.02-16.91-6.39-3.09-12.77-6.2-19.16-9.29-.64-.31-1.29-.59-1.94-.88-.74-.33-1.24-.88-.84-1.67,.39-.78,1.16-.53,1.78-.24,1.93,.91,3.83,1.85,5.75,2.78,8.4,4.08,16.8,8.16,25.2,12.23,8.57,4.15,17.16,8.26,25.72,12.44,1,.49,1.59,.48,2.08-.61,.33-.74,.84-1.41,1.34-2.06,.44-.58,.26-.88-.29-1.22-9.2-5.64-18.39-11.3-27.59-16.95-2.99-1.84-5.98-3.67-8.97-5.51-.13-.08-.25-.16-.37-.26-.48-.41-.9-.88-.46-1.53,.43-.63,1.04-.5,1.59-.16,1.79,1.08,3.57,2.18,5.35,3.28,10.4,6.4,20.81,12.79,31.19,19.23,.99,.61,1.55,.58,2.1-.45,.28-.52,.73-.94,1.11-1.4,.93-1.09,.94-1.1-.24-2-7.85-5.96-15.7-11.92-23.55-17.88-11.71-8.91-23.41-17.82-35.11-26.73-.42-.32-.84-.62-1.25-.95-.54-.43-.77-.95-.27-1.54,.47-.56,1.02-.5,1.58-.07,2.49,1.91,4.98,3.81,7.48,5.71,8.94,6.8,17.89,13.6,26.83,20.4,8.26,6.28,16.52,12.57,24.77,18.87,2.09,1.59,2.05,1.58,3.93-.21,.66-.62,.62-.97,0-1.58-5.96-5.83-11.89-11.69-17.83-17.54-3.78-3.72-7.57-7.44-11.36-11.16-2.14-2.09-4.28-4.17-6.42-6.26-.21-.21-.43-.42-.62-.65-.41-.51-.45-1.05,.04-1.5,.47-.43,.98-.26,1.4,.14,1.19,1.13,2.39,2.26,3.56,3.41,3.27,3.23,6.53,6.48,9.8,9.71,4.95,4.88,9.91,9.76,14.87,14.63,2.67,2.62,5.37,5.2,8,7.86,.65,.66,1.1,.67,1.76,.09,.81-.71,1.68-1.37,2.54-2.02,.48-.36,.57-.65,.12-1.16-4.35-5.07-8.68-10.17-13.01-15.26-4.63-5.43-9.25-10.86-13.88-16.28-4.56-5.34-9.13-10.67-13.69-16-3.45-4.03-6.88-8.07-10.32-12.11-.46-.54-.87-1.16-.15-1.75,.71-.57,1.25-.07,1.71,.47,3.23,3.77,6.46,7.55,9.68,11.33,3.76,4.4,7.51,8.81,11.27,13.21,4.68,5.48,9.35,10.97,14.04,16.45,4.1,4.8,8.2,9.59,12.31,14.39,1.29,1.5,2.58,3,3.87,4.5,.05,.06,.08,.15,.14,.17,1.33,.38,1.92-.95,2.93-1.31,.73-.26,.09-.68-.08-.94-9.95-15.4-19.91-30.8-29.87-46.2-.06-.09-.12-.19-.17-.29-.32-.63-.83-1.33,.06-1.85,.84-.49,1.31,.21,1.7,.8,4.11,6.33,8.2,12.67,12.3,19,5.99,9.25,11.99,18.49,17.96,27.75,.29,.46,.48,.44,.87,.25,1-.51,1.99-1.03,3.02-1.47,.64-.28,.7-.58,.41-1.19-1.88-3.86-3.72-7.74-5.57-11.62-6.36-13.32-12.71-26.64-19.06-39.96-3.52-7.39-7.03-14.78-10.54-22.17-.18-.37-.33-.75-.49-1.13-.24-.56-.11-1.08,.41-1.36,.6-.32,1.1-.02,1.39,.55,.71,1.4,1.4,2.81,2.08,4.23,2.8,5.87,5.58,11.74,8.38,17.61,5.5,11.54,11,23.07,16.5,34.6,2.89,6.07,5.79,12.14,8.65,18.23,.38,.81,.74,1,1.6,.68,2.92-1.08,2.89-1.03,1.82-3.96-3.21-8.84-6.38-17.7-9.56-26.56-2.56-7.13-5.13-14.26-7.69-21.39-.09-.24-.17-.5-.21-.75-.09-.57,.06-1.04,.68-1.24,.66-.21,1.03,.2,1.23,.69,.5,1.21,.94,2.44,1.38,3.67,4.34,12.09,8.67,24.18,13.01,36.27,1.3,3.62,2.61,7.23,3.9,10.86,.2,.58,.44,.75,1.06,.56,.89-.28,1.8-.49,2.72-.63,.89-.14,1.05-.53,.83-1.38-1.51-5.7-2.98-11.41-4.45-17.12-3.36-12.97-6.7-25.94-10.07-38.9-2.87-11.01-5.78-22.01-8.66-33.02-.18-.7-.38-1.48,.62-1.72,.99-.24,1.29,.5,1.49,1.27,1.89,7.33,3.76,14.67,5.67,22,4.52,17.41,9.05,34.81,13.58,52.21,1.24,4.77,2.47,9.54,3.7,14.31,.43,1.66,.42,1.66,2.07,1.38,2.21-.37,2.26-.37,2.03-2.53-.64-6.01-1.32-12.01-1.98-18.01-.48-4.37-.93-8.75-1.41-13.12-.49-4.37-1.01-8.74-1.5-13.11-.3-2.63-.58-5.26-.85-7.89-.07-.68,.26-1.18,.97-1.27,.73-.1,1.01,.44,1.09,1.02,.25,1.88,.46,3.77,.67,5.66,.51,4.48,1.02,8.96,1.51,13.44,.4,3.63,.78,7.26,1.18,10.89,.49,4.44,1.01,8.89,1.5,13.33,.33,2.96,.64,5.93,.96,8.89,.01,.11,.01,.22,.02,.34,.14,1.89,.29,2.01,2.12,1.81q1.96-.21,1.96-2.21c.01-32.01,.03-64.02,.04-96.04,0-.56-.08-1.13,.2-1.65,.23-.43,.56-.69,1.08-.63,.5,.06,.72,.41,.79,.82,.08,.43,.08,.89,.08,1.34,0,32.2-.02,64.4-.06,96.6,0,1.1,.1,1.61,1.45,1.66,2.92,.13,2.85,.24,3.15-2.63,.62-5.78,1.32-11.56,1.97-17.33,.56-5,1.08-10.01,1.65-15.01,.63-5.56,1.3-11.11,1.95-16.66,.18-1.59,.34-3.19,.51-4.78,.02-.19,.02-.38,.06-.56,.15-.64,.32-1.3,1.17-1.24,.86,.07,.95,.76,.91,1.41-.05,.97-.18,1.93-.29,2.89-.42,3.67-.85,7.33-1.27,11-.57,4.96-1.15,9.92-1.71,14.88-.48,4.26-.95,8.52-1.43,12.78-.49,4.33-.99,8.66-1.49,13-.08,.67-.13,1.34-.23,2-.07,.44,.11,.6,.53,.65,1.07,.15,2.14,.32,3.2,.51,.34,.06,.44-.05,.5-.39,1.14-6.24,2.66-12.4,4.02-18.59,2.93-13.37,5.86-26.74,8.79-40.11,2.3-10.49,4.62-20.98,6.93-31.48,.04-.18,.06-.37,.12-.55,.21-.67,.59-1.21,1.37-.97,.7,.21,.77,.83,.63,1.47-.43,2.01-.85,4.01-1.29,6.02-3.5,15.88-7,31.76-10.5,47.64-2.61,11.84-5.21,23.68-7.83,35.51-.41,1.85-.42,1.83,1.43,2.25,1.02,.23,2.03,.5,3.02,.82,.82,.27,1.2,.14,1.51-.78,2.25-6.81,4.56-13.59,6.86-20.38,3.85-11.35,7.71-22.69,11.57-34.04,.07-.21,.15-.42,.22-.63,.25-.66,.77-.83,1.36-.62,.57,.2,.75,.71,.56,1.29-.54,1.67-1.09,3.34-1.65,5-2.92,8.63-5.85,17.26-8.77,25.88-2.72,8.02-5.44,16.05-8.2,24.07-.29,.84-.21,1.23,.72,1.51,1.32,.39,2.59,.95,3.87,1.47,.48,.2,.69,.12,.92-.37,3.1-6.55,6.22-13.09,9.35-19.63,5.34-11.15,10.7-22.3,16.04-33.45,4-8.36,8-16.72,12.01-25.07,.36-.75,.67-1.85,1.81-1.27,1.05,.54,.38,1.43,.04,2.15-5.51,11.49-11.02,22.97-16.54,34.46-4.31,8.99-8.62,17.99-12.93,26.98-2.52,5.26-5.03,10.52-7.55,15.77-.22,.47-.48,.92-.75,1.42Zm-83.06,31.76c3.77-1.99,7.64-3.74,11.74-4.93,3.83-1.11,7.74-1.98,11.47-3.41,8.26-3.18,16.88-4.19,25.65-4.55,3.67-.15,7.31,.18,10.97,.08,2.76-.07,5.53,.17,8.26,.48,6.25,.73,12.53,1.32,18.73,2.45,6.83,1.24,13.58,2.78,20.14,5.09,1.4,.49,2.76,1.14,4.23,1.44,.05,.03,.12,.11,.14,.1,.13-.08,.03-.14-.03-.2-.09-.24-.15-.5-.28-.72-6.67-11-15.84-19.31-27.34-24.96-11.56-5.68-23.8-7.82-36.65-6.42-6.86,.75-13.36,2.71-19.56,5.64-7.26,3.43-13.49,8.27-18.64,14.43-3.85,4.61-6.97,9.67-8.93,15.4-.07,.06-.16,.12-.03,.2,.01,0,.09-.07,.13-.1Zm73.55-9.65c.11,.32,.16,.53,.26,.72,3.5,6.84,1.6,14.69-3.41,19.73-5.98,6.02-13.2,8.12-21.43,5.92-9.59-2.56-15.67-12.41-11.77-22.4,.59-1.5,1.36-2.93,2.08-4.48-2.57,.37-5.13,.54-7.53,1.3-8.13,2.6-16.4,4.78-24.43,7.68-2.78,1-5.49,2.2-7.77,4.14-1.45,1.23-1.4,1.43,0,2.57,.15,.12,.28,.24,.43,.36,15.42,11.47,32.69,17.93,51.91,18.93,5.49,.29,10.98-.03,16.41-.89,10.36-1.64,20.1-5.07,29.07-10.55,5.6-3.42,10.72-7.46,15.17-12.32,.88-.96,.86-1-.33-1.61-2.37-1.21-4.89-2.05-7.41-2.85-7.44-2.37-15.03-4.11-22.76-5.18-2.8-.39-5.6-.71-8.51-1.08Zm-29.05-.85c-1.74-.45-2.66,.51-3.42,1.75-.31,.51-.59,1.03-.91,1.54-4.3,7.01-1.81,16.5,5.46,20.34,7.25,3.83,14.32,3.08,20.88-1.61,4.64-3.32,7.16-7.95,7.01-13.79-.06-2.31-.77-4.47-1.89-6.5-.34-.62-.47-1.28-1.46-1.38-4.54-.45-9.07-.75-13.63-.72-.41,0-.8,.02-1.21,.15-4.47,1.45-6.52,5.17-5.33,9.7,.84,3.17,2.7,5.51,5.6,7.06,1.34,.71,2.72,.71,4.14,.61,.54-.04,1.03,.03,1.29,.64,.27,.64,.01,1.09-.45,1.47-.34,.29-.7,.56-1.09,.77-5.04,2.82-10.8,1.18-14.43-2.83-4.33-4.77-5.12-11.93-.57-17.23Z"/><path class="cls-1" d="M408.12,324.5c-.12,.64-.43,1.16-1.12,1.16-.64,0-1.02-.5-1.01-1.1,.01-.6,.38-1.09,1.03-1.08,.61,0,1.02,.37,1.09,1.02Z"/><path class="cls-1" d="M264.3,279.26c-.7-.14-1.04-.61-1.02-1.27,.02-.57,.4-1.02,.99-1,.76,.03,1.09,.62,1.05,1.3-.03,.58-.44,.91-1.02,.96Z"/><path class="cls-1" d="M482.62,527.69c-.01,.63-.53,1.02-1.24,1.15-.55,.1-.89-.34-.85-.8,.06-.71,.48-1.26,1.26-1.34,.54-.06,.82,.26,.84,1Z"/><path class="cls-1" d="M393.27,297.1c.72,.02,1.09,.38,1.04,.97-.06,.65-.51,1.11-1.17,1.12-.59,.01-.94-.38-.91-1.01,.03-.72,.43-1.05,1.05-1.08Z"/><path class="cls-1" d="M290.39,266.16c.64,.2,1.08,.56,1.04,1.27-.04,.62-.45,.94-1.06,.89-.66-.06-1.02-.53-.99-1.14,.03-.56,.41-.94,1.01-1.02Z"/><path class="cls-1" d="M263.47,391.63c.04-.32,.4-.67,1-.58,.67,.1,1.01,.57,.96,1.27-.05,.63-.42,.97-1.02,.87-.66-.11-1.02-.55-.93-1.56Z"/><path class="cls-1" d="M346.02,391.76c-.78,.01-1.05-.46-1.06-1,0-.58,.29-1.13,.97-1.15,.67-.03,1.04,.48,1.03,1.07,0,.59-.38,1.03-.94,1.08Z"/><path class="cls-1" d="M317.95,270.21c0,.85-.43,1.2-1.05,1.18-.57-.02-.95-.36-.94-1.01,0-.71,.43-1.04,1.05-1.02,.56,.02,.97,.34,.95,.84Z"/><path class="cls-1" d="M294.59,400.48c-.04,.62-.46,.99-1.05,1.03-.58,.04-1-.37-1.02-.95-.03-.65,.44-1.03,1.05-1.04,.55-.01,1,.26,1.02,.96Z"/><path class="cls-1" d="M345.31,275.79c-.02,.4-.29,.84-.98,.87-.64,.02-.97-.35-.99-.96-.02-.67,.41-1.08,1.01-1.13,.59-.05,.97,.32,.96,1.22Z"/><path class="cls-1" d="M218.23,306.66c-.54-.12-1.01-.32-.98-.99,.03-.67,.47-1.03,1.07-1.03,.6,0,.91,.4,.9,1.03-.01,.66-.44,.88-.99,.99Z"/><path class="cls-1" d="M262.72,271.08c-.1,.61-.39,1.05-1,1.01-.63-.04-1-.43-.96-1.12,.04-.65,.46-.96,1.02-.93,.58,.04,.87,.49,.94,1.04Z"/><path class="cls-1" d="M206.68,354.04c0,.88-.34,1.18-.97,1.16-.66-.02-1.04-.37-1.03-1.04,.01-.61,.39-.96,1-.95,.67,0,.99,.41,1,.83Z"/><path class="cls-1" d="M319.08,264.18c-.04,.63-.37,.99-.98,1-.62,.01-.99-.34-.99-.96,0-.61,.35-.98,.97-.99,.62,0,.95,.34,1,.95Z"/><path class="cls-1" d="M335.01,394.92c.79,0,1.08,.3,1.08,.89,0,.71-.41,1.04-1.04,1.02-.51-.01-.93-.3-.91-.91,.02-.67,.41-.99,.87-1Z"/><path class="cls-1" d="M406.9,350.03c-.08,.58-.41,.98-1,.99-.58,0-.99-.4-1-.98-.01-.6,.39-.99,.98-.99,.59,0,.93,.39,1.02,.99Z"/><path class="cls-1" d="M352.16,387.47c-.08,.56-.35,.93-.99,.94-.58,0-.95-.3-.98-.83-.04-.61,.3-1.09,.96-1.12,.62-.02,.87,.45,1.01,1Z"/><path class="cls-1" d="M291.89,273.72c-.08,.63-.47,1.02-1.03,1-.59-.02-.9-.48-.91-1.07-.01-.61,.42-.9,.92-.91,.6-.01,.9,.44,1.02,.98Z"/><path class="cls-1" d="M348.24,268.53c-.07,.59-.42,.92-1.03,.91-.61,0-.89-.44-.89-.94,0-.56,.29-1.01,.96-.99,.61,.03,.94,.37,.96,1.02Z"/><path class="cls-1" d="M278.22,397.72c-.62-.11-1-.48-1.01-1.06,0-.63,.48-.95,1.05-.92,.6,.02,.91,.43,.87,1.07-.04,.6-.42,.83-.91,.92Z"/><path class="cls-1" d="M286.53,398.79c0,.59-.35,.94-.88,.92-.6-.02-1.09-.38-1.04-1.05,.05-.62,.5-.86,1.11-.82,.61,.04,.84,.38,.82,.96Z"/><path class="cls-1" d="M356.54,383.13c.5,.09,.88,.32,.91,.92,.03,.63-.26,1.04-.86,1.08-.6,.04-1-.36-1.02-.95-.02-.6,.37-.94,.98-1.05Z"/><path class="cls-1" d="M250.73,385.9c-.67-.07-1.04-.47-1.04-1.01,0-.58,.46-.9,1.04-.92,.6-.02,.91,.36,.9,.89,0,.57-.38,.93-.9,1.05Z"/><path class="cls-1" d="M308.05,402.52c-.51-.07-.86-.38-.85-1,0-.57,.33-.92,.88-.92,.58,0,1.01,.39,1.02,.95,0,.54-.3,.99-1.05,.97Z"/><path class="cls-1" d="M372.69,281.5c-.6-.13-1.07-.38-1.06-1.01,.01-.56,.38-.88,.94-.87,.62,0,.95,.35,.97,.97,.02,.62-.41,.8-.86,.92Z"/><path class="cls-1" d="M369.72,286.75c-.05,.34-.37,.68-1,.67-.62-.02-.88-.47-.86-.96,.02-.56,.42-.99,1.03-.93,.51,.05,.91,.35,.83,1.23Z"/><path class="cls-1" d="M239.65,288.34c.59,0,.89,.28,.9,.88,.01,.65-.34,1.01-.94,1-.54,0-.93-.39-.94-.93-.02-.6,.33-.97,.98-.96Z"/><path class="cls-1" d="M388.78,303.65c-.08,.53-.39,.93-.91,.96-.55,.04-1.03-.24-1.02-.91,0-.62,.36-.95,.98-.97,.62-.02,.81,.41,.95,.92Z"/><path class="cls-1" d="M222.18,308.1c.66,.02,.98,.39,.96,.93-.02,.56-.36,1.02-.98,1.01-.56,0-.89-.37-.89-.95,0-.63,.36-.94,.91-1Z"/><path class="cls-1" d="M236.03,284.64c-.53-.14-1.03-.37-.98-1,.04-.5,.31-.91,.92-.89,.62,.02,.94,.38,.95,.98,.01,.6-.39,.82-.9,.92Z"/><path class="cls-1" d="M411.49,348.59c-.62-.13-.92-.46-.88-1.09,.04-.6,.39-.84,.95-.82,.67,.02,.88,.42,.85,1.03-.03,.6-.43,.8-.92,.88Z"/><path class="cls-1" d="M258.62,389.06c-.11,.62-.42,.95-1.05,.93-.6-.03-.86-.34-.86-.91,0-.59,.28-.87,.88-.89,.65-.02,.92,.35,1.04,.88Z"/><path class="cls-1" d="M211.57,356.19c-.15,.48-.39,.92-.96,.88-.54-.04-.9-.42-.88-.96,.02-.53,.33-.9,.93-.86,.57,.04,.85,.37,.9,.94Z"/><path class="cls-1" d="M272.6,394.89c-.13,.62-.44,.94-1.02,.92-.58-.02-.93-.35-.9-.92,.02-.56,.4-.86,.98-.85,.6,0,.83,.4,.95,.85Z"/><path class="cls-1" d="M328.3,398.85c-.66-.13-1.02-.46-1.01-1,.01-.53,.32-.91,.92-.87,.56,.04,.91,.35,.89,.92-.02,.55-.43,.8-.81,.95Z"/><path class="cls-1" d="M321.5,400.73c-.62,0-.84-.35-.83-.93,.02-.61,.35-.85,.93-.83,.61,.02,.85,.36,.83,.93-.01,.62-.36,.85-.93,.83Z"/><path class="cls-1" d="M315.7,400.76c0,.6-.29,.88-.88,.88-.6,0-.88-.29-.88-.89,0-.6,.29-.88,.88-.88,.6,0,.89,.29,.88,.88Z"/><path class="cls-1" d="M341.84,393.37c-.13,.55-.4,.91-1,.84-.51-.06-.84-.36-.83-.87,0-.56,.36-.87,.93-.88,.62,0,.82,.41,.9,.91Z"/><path class="cls-1" d="M245.27,382.24c-.52-.1-.91-.33-.88-.95,.03-.52,.32-.86,.82-.89,.56-.03,.9,.3,.93,.88,.04,.61-.34,.85-.88,.96Z"/><path class="cls-1" d="M207.78,328.39c-.02,.55-.31,.93-.87,.93-.56,0-.87-.35-.89-.92-.02-.56,.34-.85,.81-.88,.53-.03,.92,.25,.95,.87Z"/><path class="cls-1" d="M300.23,402.44c-.52-.1-.92-.32-.88-.94,.03-.57,.36-.91,.92-.89,.5,.02,.8,.35,.83,.87,.04,.61-.34,.85-.87,.96Z"/><path class="cls-1" d="M401.83,328.06c0,.64-.32,.88-.85,.89-.59,.01-.91-.24-.91-.86,0-.59,.25-.93,.87-.89,.57,.04,.86,.38,.89,.86Z"/><path class="cls-1" d="M212.72,331.55c-.04,.33-.31,.69-.82,.67-.56-.03-.98-.34-.92-1,.05-.55,.42-.8,.89-.78,.53,.02,.89,.33,.84,1.12Z"/><path class="cls-1" d="M362.82,379.49c-.01,.52-.26,.83-.81,.83-.57,0-.92-.31-.93-.87,0-.56,.35-.87,.91-.88,.62-.02,.84,.36,.83,.92Z"/></g><polyline class="cls-3" points="210.98 194.64 173.5 194.64 173.5 446.45 235.05 446.45"/><polyline class="cls-3" points="398.2 194.64 435.68 194.64 435.68 446.45 374.13 446.45"/></g></g></g></svg>