<?xml version="1.0" encoding="UTF-8"?><svg id="Layer_2" xmlns="http://www.w3.org/2000/svg" viewBox="0 0 179.47 209.6"><defs><style>.cls-1{fill:#302f33;}.cls-2{fill:none;stroke:#302f33;stroke-miterlimit:10;}</style></defs><g id="Layer_1-2"><g><g><path class="cls-1" d="M24.64,20.26c0-3.43,1.67-6.52,4.26-8.03-.65-1.14-1.02-2.56-1.02-4.17,0-4.35,4.23-8.06,9.33-8.06,4.76,0,8.12,3.67,8.12,8.92,0,7.6-7.63,12.85-15.66,10.59v-.31c7.1,.83,13.59-2.59,13.59-8.68,0-3.67-2.78-6.27-6.7-6.27-3.64,0-6.76,1.88-6.76,5.4,0,.74,.12,1.42,.34,2.01,.71-.25,1.48-.37,2.29-.37,1.88,0,3.27,.8,3.27,1.95,0,.99-1.02,1.76-2.41,1.76-1.54,0-2.87-.74-3.86-1.98-1.7,1.05-2.78,3.15-2.78,5.5,0,3.71,2.56,5.9,7.16,5.9,5.77-.06,9.57-3.12,12.97-6.79l.22,.19c-2.56,4.01-3.49,7.84-2.19,10.68l-.22,.19c-.93-.99-1.98-1.27-3.09-1.3-1.98-.03-4.88,1.36-7.47,1.36-5.37,0-9.39-3.4-9.39-8.49Zm5.9-7.75c.65,.96,1.61,1.54,2.72,1.54,.62,0,1.17-.25,1.17-.77,0-.65-.9-1.02-2.04-1.02-.65-.03-1.27,.06-1.85,.25Z"/><path class="cls-1" d="M49.31,18.93c0-1.08,.56-2.96,1.2-4.32-2.41,.59-4.11-1.7-3.03-4.23h.31c.22,1.54,3.33,1.64,5.16-.06l.4,.25c-1.36,2.16-2.59,4.94-2.59,6.45-.03,1.48,1.05,2.29,3.03,2.29,2.59,0,4.76-2.1,4.76-4.05,0-1.14-.71-1.88-1.67-1.88s-1.61,.71-1.54,1.73l-.25,.12c-.56-.37-.93-1.2-.93-2.16,0-1.57,1.02-2.75,2.44-2.75,1.76,0,2.9,1.73,2.9,4.26,0,4.32-3.15,7.81-6.58,7.81-2.32,0-3.61-1.45-3.61-3.46Z"/><path class="cls-1" d="M60.21,21.68c2.44-1.02,4.08-3.4,4.88-7.32-2.75,1.45-5.19-1.05-4.01-3.98h.31c.25,1.7,3.77,1.79,5.56-.06l.37,.09c-2.38,5.96-2.44,10.59-.15,11.27v.31h-6.95v-.31Zm5.93-15.25c.06-1.08,.77-1.98,1.57-1.98s1.36,.9,1.3,1.98c-.06,1.11-.77,2.01-1.54,2.01s-1.39-.9-1.33-2.01Z"/><path class="cls-1" d="M70.7,16.09l3.15-9.6c-2.75,1.24-4.51-1.24-3.18-3.86h.31c.4,1.64,2.66,1.61,4.82-.06l.37,.09-4.48,13.74c-.59,1.79-.09,2.9,1.36,2.9,.9,0,1.82-.59,2.53-1.7l.4,.19c-1.08,3.03-2.41,4.6-3.98,4.6-2.19,0-2.62-2.22-1.3-6.3Z"/><path class="cls-1" d="M82.65,20.26c0-3.43,1.67-6.52,4.26-8.03-.65-1.14-1.02-2.56-1.02-4.17,0-4.35,4.23-8.06,9.33-8.06,4.76,0,8.12,3.67,8.12,8.92,0,7.6-7.63,12.85-15.66,10.59v-.31c7.1,.83,13.59-2.59,13.59-8.68,0-3.67-2.78-6.27-6.7-6.27-3.64,0-6.76,1.88-6.76,5.4,0,.74,.12,1.42,.34,2.01,.71-.25,1.48-.37,2.29-.37,1.88,0,3.27,.8,3.27,1.95,0,.99-1.02,1.76-2.41,1.76-1.54,0-2.87-.74-3.86-1.98-1.7,1.05-2.78,3.15-2.78,5.5,0,3.71,2.56,5.9,7.16,5.9,5.77-.06,9.57-3.12,12.97-6.79l.22,.19c-2.56,4.01-3.49,7.84-2.19,10.68l-.22,.19c-.93-.99-1.98-1.27-3.09-1.3-1.98-.03-4.88,1.36-7.47,1.36-5.37,0-9.39-3.4-9.39-8.49Zm5.9-7.75c.65,.96,1.61,1.54,2.72,1.54,.62,0,1.17-.25,1.17-.77,0-.65-.9-1.02-2.04-1.02-.65-.03-1.27,.06-1.85,.25Z"/><path class="cls-1" d="M106.68,27.95c-.71,0-1.2,.37-1.54,1.17h-.31c-.86-2.87,1.2-4.26,2.87-4.26,2.16,0,3.58,2.19,5.1,2.19,.86,0,1.64-.65,1.64-2.1,0-1.3-.37-3.4,.03-5.5-1.27,1.76-2.81,2.93-4.29,2.93-1.39,0-2.72-1.02-2.72-2.9,0-.96,.37-2.29,1.45-4.97-2.41,.8-4.23-1.51-3.09-4.14h.31c.22,1.54,3.03,1.54,4.79-.09l.4,.25c-1.76,4.63-2.38,6.02-2.38,7.16s.65,1.61,1.95,1.61c3.09,0,4.88-2.93,4.88-5.31,0-1.39-.65-2.69-2.13-2.96v-.31h6.02v.31c-1.54,.71-3.06,3.64-3.83,6.73-.77,3.34-.28,5.31-.28,7.19,0,2.75-1.82,4.57-4.11,4.57s-3.15-1.57-4.76-1.57Z"/><path class="cls-1" d="M119.74,17.72c0-4.2,2.69-7.41,5.68-7.41,1.88,0,3.3,1.27,3.3,3.3,0,2.56-2.44,4.01-4.82,3.98-1.17,0-2.5-.34-3.18-.8v.37c0,1.51,1.61,2.13,3.18,2.13,1.76,.06,3.74-.9,4.54-2.22l.37,.12c-.9,3.27-2.87,5.19-5.37,5.19s-3.74-1.82-3.71-4.66Zm1.17-1.95c.71,.4,1.82,.71,2.75,.71,1.98,0,3.46-.74,3.46-1.7,0-.83-.99-1.48-2.66-1.48-1.82-.06-3.12,.83-3.55,2.47Z"/></g><g><path class="cls-1" d="M39.25,161.58c0-8.83,6.21-16.83,13.62-16.83,4.01,0,6.82,2.87,6.82,6.95s-3.03,6.79-7.16,6.79c-3.21,0-5.81-1.67-5.81-3.98,0-1.57,1.24-2.56,2.53-2.56,1.08,0,2.22,.68,2.72,2.25l-.22,.19c-.19-.22-.59-.28-.86-.28-.59,0-1.05,.52-1.05,1.17,0,1.14,1.42,1.98,3.27,1.98,2.72,0,4.69-1.79,4.69-4.14,0-2.66-2.5-4.08-5.9-4.08-7.2,0-11.3,5.19-11.3,11.46,0,5.77,3.64,8.49,8.46,8.49,3.27,0,5.9-1.51,5.9-3.71,0-1.08-.68-2.16-1.61-2.5l.03-.37c2.32-.09,4.04,1.76,4.04,4.38,0,3.92-3.77,6.82-8.24,6.82-5.87,0-9.94-4.48-9.94-12.04Z"/><path class="cls-1" d="M60.68,162.01c0-3.89,2.41-6.95,5.43-6.95,2.47,0,4.05,2.04,4.01,5.13,.03,3.89-2.38,6.95-5.43,6.95-2.44,0-4.01-2.04-4.01-5.13Zm8.49-1.08c0-1.67-1.36-2.78-3.55-2.78-2.38,0-3.98,1.24-3.98,3.06s1.39,2.84,3.61,2.84c2.35,0,3.92-1.24,3.92-3.12Z"/><path class="cls-1" d="M77.26,155.46h.25l.46-1.57c.8-2.69,.68-4.23-1.14-4.42l.03-.31c5.16-4.08,9.08,1.45,6.15,3.61l-.25-.22c.8-1.36-.12-2.28-1.2-2.28-1.54,0-1.98,1.98-2.53,3.89l-.37,1.3h4.26v.31c-1.11,.86-1.76,2.69-1.76,4.23h-.31c-.4-1.02-1.48-1.88-2.87-2.29l-2.9,9.79c-.49,1.67-.68,2.41-.68,3.12,0,1.39,.62,2.66,2.1,2.93v.31h-6.95v-.31c2.44-1.02,3.67-3.61,4.45-6.24l2.9-9.82c-.25,0-.52-.03-.8-.03-2.25,0-3.27,.86-2.87,2.66l-.31,.15c-1.51-2.29,.09-4.82,4.35-4.82Z"/><path class="cls-1" d="M88.22,155.46h.25l.46-1.57c.8-2.69,.68-4.23-1.14-4.42l.03-.31c5.16-4.08,9.08,1.45,6.15,3.61l-.25-.22c.8-1.36-.12-2.28-1.2-2.28-1.54,0-1.98,1.98-2.53,3.89l-.37,1.3h4.26v.31c-1.11,.86-1.76,2.69-1.76,4.23h-.31c-.4-1.02-1.48-1.88-2.87-2.29l-2.9,9.79c-.49,1.67-.68,2.41-.68,3.12,0,1.39,.62,2.66,2.1,2.93v.31h-6.95v-.31c2.44-1.02,3.67-3.61,4.45-6.24l2.9-9.82c-.25,0-.52-.03-.8-.03-2.25,0-3.27,.86-2.87,2.66l-.31,.15c-1.51-2.29,.09-4.82,4.35-4.82Z"/><path class="cls-1" d="M94.58,162.47c0-4.2,2.69-7.41,5.68-7.41,1.88,0,3.3,1.27,3.3,3.3,0,2.56-2.44,4.01-4.82,3.98-1.17,0-2.5-.34-3.18-.8v.37c0,1.51,1.61,2.13,3.18,2.13,1.76,.06,3.74-.9,4.54-2.22l.37,.12c-.9,3.27-2.87,5.19-5.37,5.19s-3.74-1.82-3.71-4.66Zm1.17-1.95c.71,.4,1.82,.71,2.75,.71,1.98,0,3.46-.74,3.46-1.7,0-.83-.99-1.48-2.66-1.48-1.82-.06-3.12,.83-3.55,2.47Z"/><path class="cls-1" d="M106.28,162.47c0-4.2,2.69-7.41,5.68-7.41,1.88,0,3.3,1.27,3.3,3.3,0,2.56-2.44,4.01-4.82,3.98-1.17,0-2.5-.34-3.18-.8v.37c0,1.51,1.61,2.13,3.18,2.13,1.76,.06,3.74-.9,4.54-2.22l.37,.12c-.9,3.27-2.87,5.19-5.37,5.19s-3.74-1.82-3.71-4.66Zm1.17-1.95c.71,.4,1.82,.71,2.75,.71,1.98,0,3.46-.74,3.46-1.7,0-.83-.99-1.48-2.66-1.48-1.82-.06-3.12,.83-3.55,2.47Z"/></g><g><path class="cls-1" d="M92.5,99.93c1.32,.74,1.3,.73,2.06-.51,4.42-7.26,8.84-14.51,13.26-21.77,1.11-1.83,2.23-3.66,3.34-5.49,.03-.06,.06-.11,.1-.17,.2-.36,.49-.61,.89-.37,.4,.24,.33,.59,.11,.95-.77,1.25-1.51,2.52-2.28,3.78-3.46,5.69-6.93,11.38-10.39,17.07-1.47,2.42-2.94,4.84-4.44,7.25-.25,.41-.2,.59,.21,.79,.43,.21,.86,.43,1.23,.72,.55,.43,.85,.27,1.25-.24,3.89-5,7.6-10.13,11.4-15.2,5.76-7.68,11.48-15.39,17.22-23.08,.28-.37,.57-.82,1.09-.43,.48,.37,.14,.78-.12,1.13-3.09,4.14-6.18,8.28-9.27,12.42-6.04,8.09-12.08,16.18-18.11,24.27-.44,.59-.82,1.22-1.37,1.72-.33,.3-.35,.58,.07,.82,.02,.01,.04,.02,.05,.03,1.13,.81,1.14,.82,2.12-.19,3.64-3.77,7.27-7.54,10.9-11.32,3.32-3.45,6.63-6.9,9.94-10.35,.3-.31,.62-.55,1-.2,.37,.35,.16,.71-.14,1.02-.96,1-1.91,2-2.88,3-3.02,3.13-6.05,6.25-9.07,9.39-3.11,3.23-6.2,6.47-9.32,9.68-.43,.45-.34,.68,.09,1.01,1.17,.91,1.17,.92,2.34,.02,6.1-4.73,12.2-9.45,18.3-14.18,4.47-3.47,8.94-6.95,13.42-10.43,.03-.03,.06-.06,.1-.08,.34-.24,.72-.41,1.03,0,.31,.41,.04,.73-.29,.98-1.27,.98-2.54,1.94-3.8,2.92-6.18,4.8-12.36,9.6-18.54,14.39-3.36,2.61-6.73,5.22-10.1,7.83-.29,.23-.4,.36-.08,.68,1.22,1.25,1.2,1.25,2.7,.35,7.48-4.51,14.97-9,22.46-13.51,.37-.23,.79-.42,1.08,.06,.29,.48-.1,.75-.47,.97-3.7,2.23-7.41,4.46-11.11,6.69-3.98,2.4-7.97,4.78-11.96,7.18-.67,.41-.67,.44-.14,1.04,.94,1.08,.93,1.06,2.24,.45,8.41-3.91,16.83-7.81,25.24-11.72,2.04-.95,4.08-1.9,6.12-2.85,.1-.05,.2-.08,.3-.12,.34-.15,.67-.11,.84,.23,.19,.38-.03,.67-.38,.84-1.03,.49-2.07,.98-3.11,1.47-3.39,1.57-6.79,3.14-10.18,4.72-6.3,2.92-12.59,5.84-18.9,8.75-.44,.2-.56,.38-.22,.79,.3,.37,.55,.77,.79,1.18,.22,.38,.48,.41,.87,.26,7.27-2.7,14.55-5.38,21.83-8.07,.43-.16,.86-.22,1.03,.28,.17,.49-.18,.72-.62,.88-7.18,2.63-14.36,5.28-21.54,7.92-.46,.17-.67,.36-.33,.82,.14,.19,.24,.41,.36,.62,.57,1.05,.28,1.06,1.6,.73,10.25-2.56,20.49-5.12,30.74-7.68,.31-.08,.63-.14,.94-.23,.43-.13,.82-.09,.93,.39,.11,.47-.21,.69-.64,.8-2.29,.56-4.57,1.12-6.85,1.69-8.55,2.13-17.09,4.26-25.64,6.39-.57,.14-1.05,.41-1.48,.86-3.97,4.13-8.58,7.38-13.8,9.74-4.3,1.94-8.8,3.18-13.48,3.81-3.17,.43-6.35,.52-9.51,.33-6.15-.37-12.07-1.81-17.75-4.22-4.58-1.95-8.83-4.46-12.78-7.49-.46-.35-.99-.53-1.1-1.21-.03-.22-.42-.18-.64-.23-3.3-.68-6.6-1.35-9.9-2.03-3.59-.74-7.19-1.5-10.78-2.24-3.49-.72-6.98-1.44-10.46-2.16-.17-.03-.34-.07-.51-.11-.37-.11-.64-.34-.54-.75,.11-.42,.42-.53,.86-.44,2.91,.63,5.83,1.24,8.75,1.85,6.11,1.27,12.22,2.52,18.33,3.78,1.71,.35,3.43,.68,5.14,1.06,.34,.08,.44,0,.55-.3,.58-1.55,.58-1.54-.98-2.1-5.83-2.11-11.66-4.23-17.49-6.35-.43-.16-.7-.44-.52-.88,.16-.41,.53-.43,.93-.29,6.13,2.24,12.26,4.48,18.38,6.74,.51,.19,.8,.17,.95-.4,.05-.21,.18-.39,.28-.58,.5-1.03,.51-1.05-.55-1.56-6.76-3.27-13.52-6.52-20.27-9.79-3.7-1.79-7.39-3.59-11.09-5.38-.37-.18-.75-.34-1.12-.51-.43-.19-.72-.51-.49-.97,.23-.45,.67-.31,1.03-.14,1.12,.52,2.22,1.07,3.33,1.61,4.86,2.36,9.73,4.73,14.59,7.08,4.96,2.4,9.94,4.78,14.89,7.2,.58,.28,.92,.28,1.21-.35,.19-.43,.49-.82,.77-1.2,.26-.34,.15-.51-.17-.71-5.33-3.27-10.65-6.54-15.97-9.82-1.73-1.06-3.46-2.13-5.2-3.19-.07-.05-.15-.09-.21-.15-.28-.24-.52-.51-.26-.89,.25-.36,.6-.29,.92-.09,1.04,.63,2.07,1.26,3.1,1.9,6.02,3.71,12.05,7.4,18.06,11.13,.57,.36,.9,.34,1.22-.26,.16-.3,.42-.55,.65-.81,.54-.63,.55-.64-.14-1.16-4.54-3.45-9.09-6.9-13.63-10.35-6.78-5.16-13.55-10.32-20.33-15.48-.24-.18-.49-.36-.72-.55-.31-.25-.44-.55-.16-.89,.27-.32,.59-.29,.92-.04,1.44,1.1,2.88,2.21,4.33,3.31,5.18,3.94,10.36,7.87,15.54,11.81,4.78,3.64,9.56,7.28,14.34,10.92,1.21,.92,1.19,.91,2.28-.12,.38-.36,.36-.56,0-.91-3.45-3.38-6.88-6.77-10.32-10.16-2.19-2.16-4.38-4.31-6.58-6.46-1.24-1.21-2.48-2.42-3.72-3.63-.12-.12-.25-.24-.36-.38-.24-.29-.26-.61,.02-.87,.27-.25,.57-.15,.81,.08,.69,.65,1.39,1.31,2.06,1.97,1.9,1.87,3.78,3.75,5.67,5.62,2.87,2.83,5.74,5.65,8.61,8.47,1.54,1.52,3.11,3.01,4.63,4.55,.38,.38,.64,.39,1.02,.05,.47-.41,.97-.79,1.47-1.17,.28-.21,.33-.37,.07-.67-2.52-2.94-5.02-5.89-7.53-8.83-2.68-3.14-5.35-6.29-8.04-9.43-2.64-3.09-5.29-6.18-7.93-9.27-1.99-2.33-3.99-4.67-5.98-7.01-.27-.31-.51-.67-.09-1.01,.41-.33,.72-.04,.99,.27,1.87,2.18,3.74,4.37,5.61,6.56,2.18,2.55,4.35,5.1,6.53,7.65,2.71,3.17,5.42,6.35,8.13,9.52,2.37,2.78,4.75,5.55,7.12,8.33,.74,.87,1.5,1.74,2.24,2.6,.03,.03,.05,.09,.08,.1,.77,.22,1.11-.55,1.7-.76,.42-.15,.05-.39-.05-.55-5.76-8.92-11.53-17.83-17.3-26.75-.04-.05-.07-.11-.1-.17-.19-.36-.48-.77,.03-1.07,.49-.28,.76,.12,.99,.47,2.38,3.66,4.75,7.33,7.12,11,3.47,5.35,6.94,10.7,10.4,16.07,.17,.26,.28,.26,.5,.14,.58-.29,1.15-.6,1.75-.85,.37-.16,.41-.34,.24-.69-1.09-2.24-2.16-4.48-3.23-6.73-3.68-7.71-7.36-15.42-11.04-23.14-2.04-4.28-4.07-8.56-6.1-12.84-.1-.21-.19-.44-.28-.65-.14-.33-.06-.63,.24-.78,.35-.18,.64-.01,.81,.32,.41,.81,.81,1.63,1.2,2.45,1.62,3.4,3.23,6.8,4.85,10.2,3.18,6.68,6.37,13.35,9.55,20.03,1.68,3.51,3.35,7.03,5.01,10.55,.22,.47,.43,.58,.93,.39,1.69-.62,1.67-.59,1.06-2.29-1.86-5.12-3.69-10.25-5.54-15.37-1.48-4.13-2.97-8.26-4.45-12.39-.05-.14-.1-.29-.12-.43-.05-.33,.03-.6,.39-.72,.38-.12,.59,.12,.71,.4,.29,.7,.54,1.41,.8,2.12,2.51,7,5.02,14,7.53,21,.75,2.1,1.51,4.19,2.26,6.29,.12,.33,.26,.44,.62,.32,.51-.16,1.04-.28,1.58-.37,.52-.08,.61-.31,.48-.8-.87-3.3-1.72-6.61-2.58-9.91-1.94-7.51-3.88-15.02-5.83-22.52-1.66-6.38-3.34-12.74-5.01-19.12-.11-.41-.22-.86,.36-1,.58-.14,.75,.29,.86,.73,1.09,4.25,2.18,8.49,3.28,12.74,2.62,10.08,5.24,20.15,7.86,30.23,.72,2.76,1.43,5.52,2.14,8.28,.25,.96,.24,.96,1.2,.8,1.28-.21,1.31-.22,1.18-1.47-.37-3.48-.77-6.95-1.15-10.43-.28-2.53-.54-5.07-.82-7.6-.28-2.53-.58-5.06-.87-7.59-.17-1.52-.34-3.05-.49-4.57-.04-.4,.15-.68,.56-.73,.42-.06,.59,.26,.63,.59,.15,1.09,.27,2.18,.39,3.28,.29,2.59,.59,5.19,.88,7.78,.23,2.1,.45,4.21,.69,6.31,.29,2.57,.58,5.14,.87,7.72,.19,1.72,.37,3.43,.56,5.15,0,.06,0,.13,.01,.19,.08,1.09,.17,1.16,1.23,1.05q1.14-.12,1.14-1.28c0-18.53,.01-37.07,.02-55.6,0-.32-.05-.65,.12-.96,.13-.25,.32-.4,.63-.36,.29,.03,.41,.24,.46,.48,.05,.25,.05,.52,.05,.77,0,18.64-.01,37.28-.03,55.93,0,.64,.06,.93,.84,.96,1.69,.07,1.65,.14,1.83-1.52,.36-3.35,.76-6.69,1.14-10.04,.33-2.9,.63-5.79,.96-8.69,.37-3.22,.75-6.43,1.13-9.65,.11-.92,.2-1.85,.29-2.77,.01-.11,.01-.22,.04-.32,.09-.37,.19-.76,.68-.72,.5,.04,.55,.44,.53,.82-.03,.56-.1,1.12-.17,1.68-.24,2.12-.49,4.24-.74,6.37-.33,2.87-.67,5.74-.99,8.62-.28,2.47-.55,4.93-.83,7.4-.28,2.51-.57,5.02-.86,7.52-.04,.39-.08,.77-.14,1.16-.04,.26,.06,.35,.3,.38,.62,.09,1.24,.19,1.85,.29,.2,.03,.25-.03,.29-.22,.66-3.61,1.54-7.18,2.33-10.76,1.69-7.74,3.39-15.48,5.09-23.23,1.33-6.08,2.67-12.15,4.01-18.22,.02-.11,.04-.21,.07-.32,.12-.39,.34-.7,.79-.56,.4,.12,.45,.48,.37,.85-.25,1.16-.49,2.32-.75,3.48-2.03,9.2-4.05,18.39-6.08,27.58-1.51,6.85-3.02,13.71-4.53,20.56-.24,1.07-.24,1.06,.83,1.31,.59,.13,1.18,.29,1.75,.48,.47,.15,.7,.08,.87-.45,1.3-3.94,2.64-7.87,3.97-11.8,2.23-6.57,4.46-13.14,6.7-19.71,.04-.12,.08-.24,.13-.37,.14-.38,.45-.48,.79-.36,.33,.12,.43,.41,.32,.74-.31,.97-.63,1.93-.96,2.89-1.69,5-3.38,9.99-5.08,14.99-1.58,4.65-3.15,9.29-4.75,13.93-.17,.49-.12,.71,.42,.87,.76,.22,1.5,.55,2.24,.85,.28,.11,.4,.07,.53-.22,1.79-3.79,3.6-7.58,5.41-11.36,3.09-6.46,6.19-12.91,9.29-19.37,2.32-4.84,4.63-9.68,6.95-14.51,.21-.43,.39-1.07,1.05-.73,.61,.31,.22,.83,.02,1.24-3.19,6.65-6.38,13.3-9.57,19.95-2.5,5.21-4.99,10.41-7.49,15.62-1.46,3.04-2.91,6.09-4.37,9.13-.13,.27-.28,.53-.43,.82Zm-48.09,18.39c2.18-1.15,4.42-2.17,6.8-2.86,2.22-.64,4.48-1.14,6.64-1.98,4.78-1.84,9.77-2.43,14.85-2.64,2.12-.09,4.23,.1,6.35,.05,1.6-.04,3.2,.1,4.78,.28,3.62,.42,7.25,.77,10.84,1.42,3.95,.72,7.86,1.61,11.66,2.94,.81,.29,1.6,.66,2.45,.83,.03,.02,.07,.06,.08,.06,.08-.05,.02-.08-.02-.12-.05-.14-.08-.29-.16-.42-3.86-6.37-9.17-11.18-15.83-14.45-6.7-3.29-13.78-4.53-21.22-3.72-3.97,.43-7.73,1.57-11.32,3.27-4.2,1.99-7.81,4.79-10.79,8.36-2.23,2.67-4.04,5.6-5.17,8.91-.04,.03-.09,.07-.02,.12,0,0,.05-.04,.08-.06Zm42.58-5.59c.07,.18,.1,.31,.15,.42,2.03,3.96,.93,8.5-1.97,11.42-3.46,3.49-7.64,4.7-12.41,3.43-5.55-1.48-9.07-7.19-6.81-12.97,.34-.87,.79-1.7,1.21-2.59-1.49,.21-2.97,.31-4.36,.76-4.71,1.51-9.49,2.77-14.15,4.45-1.61,.58-3.18,1.28-4.5,2.4-.84,.71-.81,.83,0,1.49,.08,.07,.16,.14,.25,.21,8.93,6.64,18.92,10.38,30.06,10.96,3.18,.17,6.35-.02,9.5-.52,6-.95,11.64-2.94,16.83-6.11,3.24-1.98,6.21-4.32,8.78-7.13,.51-.56,.5-.58-.19-.93-1.37-.7-2.83-1.19-4.29-1.65-4.31-1.37-8.7-2.38-13.18-3-1.62-.23-3.24-.41-4.93-.62Zm-16.82-.49c-1.01-.26-1.54,.3-1.98,1.02-.18,.29-.34,.6-.52,.89-2.49,4.06-1.05,9.55,3.16,11.78,4.2,2.22,8.29,1.78,12.09-.93,2.69-1.92,4.14-4.6,4.06-7.98-.03-1.34-.44-2.59-1.09-3.76-.2-.36-.27-.74-.85-.8-2.63-.26-5.25-.44-7.89-.41-.24,0-.47,.01-.7,.09-2.59,.84-3.78,2.99-3.08,5.62,.49,1.84,1.56,3.19,3.24,4.09,.77,.41,1.57,.41,2.4,.36,.32-.02,.6,.01,.75,.37,.16,.37,0,.63-.26,.85-.2,.17-.41,.32-.63,.45-2.92,1.63-6.25,.68-8.36-1.64-2.51-2.76-2.96-6.91-.33-9.98Z"/><path class="cls-1" d="M136.34,91.29c-.07,.37-.25,.67-.65,.67-.37,0-.59-.29-.58-.64,0-.35,.22-.63,.6-.63,.35,0,.59,.21,.63,.59Z"/><path class="cls-1" d="M53.07,65.1c-.41-.08-.6-.36-.59-.73,.01-.33,.23-.59,.57-.58,.44,.01,.63,.36,.61,.75-.02,.33-.26,.52-.59,.56Z"/><path class="cls-1" d="M179.47,208.93c0,.36-.31,.59-.72,.66-.32,.06-.51-.2-.49-.47,.03-.41,.28-.73,.73-.78,.31-.03,.48,.15,.48,.58Z"/><path class="cls-1" d="M127.74,75.43c.42,0,.63,.22,.6,.56-.03,.38-.29,.64-.68,.65-.34,0-.54-.22-.53-.59,.02-.42,.25-.61,.61-.62Z"/><path class="cls-1" d="M68.18,57.51c.37,.11,.63,.32,.6,.73-.02,.36-.26,.55-.61,.51-.38-.03-.59-.31-.57-.66,.02-.32,.24-.54,.59-.59Z"/><path class="cls-1" d="M52.59,130.16c.02-.18,.23-.39,.58-.34,.39,.06,.58,.33,.55,.73-.03,.37-.24,.56-.59,.51-.38-.06-.59-.32-.54-.9Z"/><path class="cls-1" d="M100.39,130.23c-.45,0-.61-.27-.61-.58,0-.34,.17-.65,.56-.67,.39-.01,.6,.28,.6,.62,0,.34-.22,.6-.55,.63Z"/><path class="cls-1" d="M84.13,59.86c0,.49-.25,.69-.61,.68-.33-.01-.55-.21-.55-.58,0-.41,.25-.6,.61-.59,.32,.01,.56,.2,.55,.49Z"/><path class="cls-1" d="M70.61,135.28c-.02,.36-.27,.58-.61,.6-.33,.02-.58-.22-.59-.55-.02-.38,.25-.6,.61-.6,.32,0,.58,.15,.59,.56Z"/><path class="cls-1" d="M99.98,63.09c-.01,.23-.17,.49-.57,.5-.37,.01-.56-.2-.57-.56-.01-.39,.24-.62,.59-.65,.34-.03,.56,.19,.55,.71Z"/><path class="cls-1" d="M26.4,80.96c-.31-.07-.58-.19-.57-.57,.02-.39,.27-.6,.62-.6,.35,0,.53,.23,.52,.59,0,.38-.26,.51-.57,.57Z"/><path class="cls-1" d="M52.16,60.36c-.06,.35-.23,.61-.58,.59-.37-.02-.58-.25-.55-.65,.02-.37,.26-.56,.59-.54,.34,.02,.5,.28,.55,.6Z"/><path class="cls-1" d="M19.71,108.39c0,.51-.2,.68-.56,.67-.38-.01-.6-.22-.59-.6,0-.36,.23-.55,.58-.55,.39,0,.57,.24,.58,.48Z"/><path class="cls-1" d="M84.79,56.37c-.02,.36-.21,.57-.57,.58-.36,0-.57-.2-.57-.56,0-.35,.2-.57,.56-.57,.36,0,.55,.2,.58,.55Z"/><path class="cls-1" d="M94.01,132.06c.46,0,.62,.17,.63,.52,0,.41-.24,.6-.6,.59-.29,0-.54-.17-.53-.53,.01-.39,.24-.57,.5-.58Z"/><path class="cls-1" d="M135.63,106.07c-.05,.33-.24,.57-.58,.57-.34,0-.57-.23-.58-.57,0-.35,.22-.57,.56-.57,.34,0,.54,.22,.59,.57Z"/><path class="cls-1" d="M103.94,127.75c-.05,.33-.2,.54-.57,.54-.34,0-.55-.17-.57-.48-.02-.35,.18-.63,.56-.65,.36-.01,.5,.26,.59,.58Z"/><path class="cls-1" d="M69.04,61.89c-.05,.36-.27,.59-.6,.58-.34,0-.52-.28-.53-.62,0-.35,.24-.52,.54-.53,.35,0,.52,.25,.59,.57Z"/><path class="cls-1" d="M101.67,58.88c-.04,.34-.24,.53-.6,.53-.35,0-.51-.26-.51-.55,0-.32,.17-.59,.55-.57,.36,.02,.54,.22,.56,.59Z"/><path class="cls-1" d="M61.13,133.68c-.36-.07-.58-.28-.58-.61,0-.36,.28-.55,.61-.54,.35,.01,.53,.25,.51,.62-.02,.35-.24,.48-.53,.53Z"/><path class="cls-1" d="M65.94,134.3c0,.34-.21,.54-.51,.53-.35-.01-.63-.22-.6-.61,.03-.36,.29-.5,.64-.48,.35,.02,.49,.22,.47,.55Z"/><path class="cls-1" d="M106.47,125.24c.29,.05,.51,.18,.53,.53,.02,.36-.15,.6-.5,.62-.35,.02-.58-.21-.59-.55-.01-.35,.21-.54,.57-.61Z"/><path class="cls-1" d="M45.21,126.84c-.39-.04-.6-.27-.6-.59,0-.34,.26-.52,.6-.53,.34-.01,.53,.21,.52,.51,0,.33-.22,.54-.52,.61Z"/><path class="cls-1" d="M78.4,136.46c-.29-.04-.5-.22-.49-.58,0-.33,.19-.53,.51-.53,.34,0,.58,.23,.59,.55,0,.31-.17,.57-.61,.56Z"/><path class="cls-1" d="M115.83,66.39c-.35-.08-.62-.22-.61-.58,0-.32,.22-.51,.54-.51,.36,0,.55,.2,.56,.56,.01,.36-.24,.46-.5,.53Z"/><path class="cls-1" d="M114.11,69.43c-.03,.2-.22,.4-.58,.39-.36,0-.51-.27-.5-.56,.01-.32,.25-.57,.6-.54,.29,.03,.53,.2,.48,.71Z"/><path class="cls-1" d="M38.8,70.35c.34,0,.52,.16,.52,.51,0,.37-.2,.58-.54,.58-.31,0-.54-.23-.54-.54,0-.35,.19-.56,.57-.56Z"/><path class="cls-1" d="M125.14,79.22c-.04,.31-.23,.54-.53,.56-.32,.02-.59-.14-.59-.52,0-.36,.21-.55,.56-.56,.36-.01,.47,.24,.55,.53Z"/><path class="cls-1" d="M28.69,81.8c.38,0,.57,.23,.55,.54-.01,.33-.21,.59-.57,.59-.32,0-.51-.21-.51-.55,0-.37,.21-.54,.53-.58Z"/><path class="cls-1" d="M36.7,68.21c-.31-.08-.6-.21-.57-.58,.02-.29,.18-.53,.53-.52,.36,.01,.54,.22,.55,.57,0,.35-.22,.47-.52,.53Z"/><path class="cls-1" d="M138.29,105.24c-.36-.07-.53-.27-.51-.63,.02-.35,.22-.48,.55-.47,.39,.01,.51,.25,.49,.6-.02,.35-.25,.46-.53,.51Z"/><path class="cls-1" d="M49.78,128.67c-.07,.36-.24,.55-.61,.54-.34-.02-.5-.19-.5-.53,0-.34,.16-.51,.51-.52,.38-.01,.53,.2,.6,.51Z"/><path class="cls-1" d="M22.54,109.64c-.09,.28-.23,.53-.55,.51-.31-.02-.52-.25-.51-.56,.01-.31,.19-.52,.54-.5,.33,.02,.49,.21,.52,.54Z"/><path class="cls-1" d="M57.88,132.04c-.08,.36-.25,.55-.59,.53-.34-.01-.54-.2-.52-.53,.01-.33,.23-.5,.57-.49,.35,0,.48,.23,.55,.49Z"/><path class="cls-1" d="M90.12,134.34c-.38-.07-.59-.26-.58-.58,0-.31,.19-.52,.54-.5,.33,.02,.53,.2,.52,.53-.01,.32-.25,.47-.47,.55Z"/><path class="cls-1" d="M86.19,135.43c-.36,0-.49-.2-.48-.54,0-.36,.2-.49,.54-.48,.36,0,.49,.21,.48,.54,0,.36-.21,.49-.54,.48Z"/><path class="cls-1" d="M82.83,135.45c0,.35-.17,.51-.51,.51-.35,0-.51-.17-.51-.51,0-.35,.17-.51,.51-.51,.35,0,.51,.17,.51,.51Z"/><path class="cls-1" d="M97.97,131.16c-.08,.32-.23,.52-.58,.49-.3-.03-.49-.21-.48-.5,0-.33,.21-.51,.54-.51,.36,0,.47,.24,.52,.53Z"/><path class="cls-1" d="M42.05,124.72c-.3-.06-.52-.19-.51-.55,.01-.3,.18-.5,.47-.51,.33-.02,.52,.18,.54,.51,.02,.35-.2,.49-.51,.55Z"/><path class="cls-1" d="M20.35,93.54c-.01,.32-.18,.54-.5,.54-.32,0-.5-.2-.52-.53-.01-.32,.2-.49,.47-.51,.31-.02,.53,.14,.55,.5Z"/><path class="cls-1" d="M73.87,136.42c-.3-.06-.53-.19-.51-.54,.02-.33,.21-.53,.53-.52,.29,.01,.46,.2,.48,.5,.02,.36-.2,.49-.5,.56Z"/><path class="cls-1" d="M132.7,93.35c0,.37-.18,.51-.49,.51-.34,0-.53-.14-.53-.5,0-.34,.15-.54,.5-.52,.33,.02,.5,.22,.52,.5Z"/><path class="cls-1" d="M23.21,95.37c-.02,.19-.18,.4-.47,.39-.33-.02-.56-.2-.53-.58,.03-.32,.25-.46,.52-.45,.31,.01,.52,.19,.49,.65Z"/><path class="cls-1" d="M110.11,123.13c0,.3-.15,.48-.47,.48-.33,0-.53-.18-.54-.5,0-.32,.2-.5,.53-.51,.36,0,.48,.21,.48,.53Z"/></g><polyline class="cls-2" points="22.2 16.11 .5 16.11 .5 161.89 36.13 161.89"/><polyline class="cls-2" points="130.59 16.11 152.29 16.11 152.29 161.89 116.66 161.89"/></g></g></svg>